<mxfile host="app.diagrams.net" modified="2023-10-01T08:51:57.649Z" agent="Mozilla/5.0 (Windows NT 10.0; Win64; x64) AppleWebKit/537.36 (KHTML, like Gecko) Chrome/117.0.0.0 Safari/537.36 Edg/117.0.2045.47" version="21.1.8" etag="P9QMSaAsfb8QXK9urLMS" type="github">
  <diagram name="Page-1" id="yrck6T4wXTJA57vzxG_Y">
    <mxGraphModel>
      <root>
        <mxCell id="0" />
        <mxCell id="1" parent="0" />
      </root>
    </mxGraphModel>
  </diagram>
</mxfile>
